HIERARCHY
ROOT Hips
{
  OFFSET 8.76364 92.3516 -276.427
  CHANNELS 6 Xposition Yposition Zposition Zrotation Xrotation Yrotation
  JOINT Spine
  {
    OFFSET 0 8.18577 0
    CHANNELS 6 Xposition Yposition Zposition Zrotation Xrotation Yrotation
    JOINT Spine1
    {
      OFFSET 0 23.9492 0
      CHANNELS 6 Xposition Yposition Zposition Zrotation Xrotation Yrotation
      JOINT Neck
      {
        OFFSET 0 23.8508 2.16826
        CHANNELS 6 Xposition Yposition Zposition Zrotation Xrotation Yrotation
        JOINT Head
        {
          OFFSET 0 13.9757 -1.99653
          CHANNELS 6 Xposition Yposition Zposition Zrotation Xrotation Yrotation
          End Site
          {
            OFFSET 0 24.9566 0
          }
        }
      }
      JOINT LeftShoulder
      {
        OFFSET 3.97939 22.162 -0.249083
        CHANNELS 6 Xposition Yposition Zposition Zrotation Xrotation Yrotation
        JOINT LeftArm
        {
          OFFSET 10.8129 0 0
          CHANNELS 6 Xposition Yposition Zposition Zrotation Xrotation Yrotation
          JOINT LeftForeArm
          {
            OFFSET 31.6972 0 0
            CHANNELS 6 Xposition Yposition Zposition Zrotation Xrotation Yrotation
            JOINT LeftHand
            {
              OFFSET 27.0474 0 0
              CHANNELS 6 Xposition Yposition Zposition Zrotation Xrotation Yrotation
              End Site
              {
                OFFSET 14.974 0 0
              }
            }
          }
        }
      }
      JOINT RightShoulder
      {
        OFFSET -4.00645 22.162 -0.249083
        CHANNELS 6 Xposition Yposition Zposition Zrotation Xrotation Yrotation
        JOINT RightArm
        {
          OFFSET -10.8129 0 0
          CHANNELS 6 Xposition Yposition Zposition Zrotation Xrotation Yrotation
          JOINT RightForeArm
          {
            OFFSET -31.6972 0 0
            CHANNELS 6 Xposition Yposition Zposition Zrotation Xrotation Yrotation
            JOINT RightHand
            {
              OFFSET -27.0474 0 0
              CHANNELS 6 Xposition Yposition Zposition Zrotation Xrotation Yrotation
              End Site
              {
                OFFSET -14.974 0 0
              }
            }
          }
        }
      }
    }
  }
  JOINT LeftUpLeg
  {
    OFFSET 9.98265 0 0
    CHANNELS 6 Xposition Yposition Zposition Zrotation Xrotation Yrotation
    JOINT LeftLeg
    {
      OFFSET 0 -38.5116 0
      CHANNELS 6 Xposition Yposition Zposition Zrotation Xrotation Yrotation
      JOINT LeftFoot
      {
        OFFSET 0 -44.7893 0
        CHANNELS 6 Xposition Yposition Zposition Zrotation Xrotation Yrotation
        JOINT LeftToeBase
        {
          OFFSET 0 -6.48872 14.974
          CHANNELS 6 Xposition Yposition Zposition Zrotation Xrotation Yrotation
          End Site
          {
            OFFSET 0 0 3.99306
          }
        }
      }
    }
  }
  JOINT RightUpLeg
  {
    OFFSET -9.98265 0 0
    CHANNELS 6 Xposition Yposition Zposition Zrotation Xrotation Yrotation
    JOINT RightLeg
    {
      OFFSET 0 -38.5116 0
      CHANNELS 6 Xposition Yposition Zposition Zrotation Xrotation Yrotation
      JOINT RightFoot
      {
        OFFSET 0 -44.7893 0
        CHANNELS 6 Xposition Yposition Zposition Zrotation Xrotation Yrotation
        JOINT RightToeBase
        {
          OFFSET 0 -6.48872 14.974
          CHANNELS 6 Xposition Yposition Zposition Zrotation Xrotation Yrotation
          End Site
          {
            OFFSET 0 0 3.99306
          }
        }
      }
    }
  }
}
MOTION
Frames:	11
Frame Time:	0.0333333
-7.2091 90.0993 115.708 -0.362378 -3.63007 174.901 0 8.18577 0 1.28534 -10.4998 4.16423 0 23.9492 0 4.45254 9.29833 3.68392 0 23.8508 2.16826 -1.15798 13.1886 -6.35473 0 13.9757 -1.99653 -1.48343 0.85648 -6.7801 3.97939 22.162 -0.249083 -2.61588 9.65275 -1.14605 10.8129 2.84217e-014 0 -71.6331 44.211 -4.43737 31.6972 7.10543e-015 0 2.1849 -4.90956 -14.4868 27.0474 -1.42109e-014 0 -13.4904 -4.63221 -0.00236319 -4.00645 22.162 -0.249083 -9.63269 3.13964 4.14167 -10.8129 -2.84217e-014 -2.84217e-014 59.1312 40.0751 22.9173 -31.6972 1.42109e-014 0 -9.78107 -3.80087 31.6363 -27.0474 -7.10543e-015 -3.55271e-015 -6.3684 -0.22608 -14.3017 9.98265 1.42109e-014 -1.42109e-014 -1.30479 -28.936 3.71658 -1.77636e-015 -38.5116 0 -0.650779 3.88143 7.51967 0 -44.7893 0 -7.97217 -2.31473 8.32227 3.55271e-015 -6.48872 14.974 -2.38542e-015 6.36111e-015 -1.59028e-015 -9.98265 -1.42109e-014 0 4.12021 12.0695 -1.23316 -1.77636e-015 -38.5116 0 1.70654 3.8726 6.40232 0 -44.7893 0 -3.51073 -14.7498 -8.85693 0 -6.48872 14.974 -9.93923e-017 7.95139e-016 -0 
-6.95042 89.3799 112.121 -0.246989 -3.74323 174.429 8.88178e-016 8.18577 1.42109e-014 1.27584 -10.7874 3.93379 0 23.9492 0 4.03728 9.45693 3.47935 0 23.8508 2.16826 -1.13818 13.272 -5.98356 0 13.9757 -1.99653 -1.49272 0.221339 -6.40462 3.97939 22.162 -0.249083 -2.8799 9.58581 -1.11331 10.8129 -1.42109e-014 0 -71.3686 44.2219 -4.17729 31.6972 0 2.84217e-014 1.36152 -4.89915 -13.0664 27.0474 0 0 -14.1361 -4.74719 0.0306595 -4.00645 22.162 -0.249083 -9.59868 3.09432 3.9862 -10.8129 -2.84217e-014 -1.42109e-014 60.528 40.4226 22.1977 -31.6972 0 -1.42109e-014 -9.33955 -3.43657 31.6077 -27.0474 0 0 -6.6008 0.0272139 -14.0901 9.98265 -1.42109e-014 0 -1.78954 -30.4185 2.19231 8.88178e-016 -38.5116 0 -0.349752 6.64169 6.31521 1.77636e-015 -44.7893 0 -3.07352 -4.72995 9.20841 -3.55271e-015 -6.48872 14.974 2.38542e-015 0 -3.18055e-015 -9.98265 0 0 4.06677 13.732 -1.37345 0 -38.5116 0 1.83334 4.96965 8.30587 0 -44.7893 0 -5.13576 -15.131 -10.5471 -1.77636e-015 -6.48872 14.974 3.97569e-016 1.59028e-015 1.59028e-015 
-6.78081 88.7634 108.329 -0.45919 -3.8918 173.943 -8.88178e-016 8.18577 0 1.50174 -11.2692 3.64489 0 23.9492 -1.42109e-014 2.80874 9.72792 3.25767 0 23.8508 2.16826 -1.55184 13.1214 -5.39663 -8.88178e-016 13.9757 -1.99653 -0.63158 0.167247 -5.65972 3.97939 22.162 -0.249083 -2.84071 9.4306 -0.722265 10.8129 0 0 -70.876 44.6184 -4.12641 31.6972 -7.10543e-015 0 0.67584 -5.00435 -11.6638 27.0474 0 0 -14.6207 -4.95593 0.163056 -4.00645 22.162 -0.249083 -9.37409 3.36914 3.95116 -10.8129 0 0 62.3034 41.0308 21.3523 -31.6972 -7.10543e-015 0 -9.20756 -2.88788 31.0769 -27.0474 7.10543e-015 0 -6.31775 0.475197 -14.4036 9.98265 1.42109e-014 0 -2.71104 -32.4108 -1.3803 0 -38.5116 7.10543e-015 0.011238 13.0456 6.3213 1.77636e-015 -44.7893 1.42109e-014 -0.452054 -4.18327 10.9498 3.55271e-015 -6.48872 14.974 -7.95139e-016 0 -0 -9.98265 1.42109e-014 2.84217e-014 3.90548 14.8085 -1.79281 -1.77636e-015 -38.5116 0 1.20447 7.05859 9.31865 1.77636e-015 -44.7893 0 -5.02377 -15.4746 -10.9304 -3.55271e-015 -6.48872 14.974 -7.95139e-016 1.59028e-015 1.59028e-015 
-6.66502 88.3187 104.198 -1.13123 -4.04851 173.115 0 8.18577 -1.42109e-014 1.06189 -12.0547 3.6357 8.88178e-016 23.9492 0 1.86923 9.92709 3.36121 1.77636e-015 23.8508 2.16826 -1.46275 13.2208 -5.08861 8.88178e-016 13.9757 -1.99653 -0.281158 0.0613615 -5.29406 3.97939 22.162 -0.249083 -2.88198 9.19238 -0.675548 10.8129 0 0 -70.6222 44.2365 -3.77398 31.6972 0 0 0.179839 -4.3904 -10.0815 27.0474 7.10543e-015 -1.42109e-014 -14.883 -4.44244 0.521364 -4.00645 22.162 -0.249083 -8.8272 3.93451 3.72691 -10.8129 0 0 64.2417 41.7306 19.5776 -31.6972 1.42109e-014 0 -8.93283 -2.03338 30.4031 -27.0474 0 0 -6.15097 1.17691 -14.4263 9.98265 -1.42109e-014 0 -3.71695 -33.0108 -2.69417 -1.77636e-015 -38.5116 7.10543e-015 0.332529 16.6368 6.89695 -8.88178e-016 -44.7893 0 2.24743 -1.39202 11.5339 0 -6.48872 14.974 0 1.59028e-015 -0 -9.98265 -1.42109e-014 0 3.38825 15.5537 -2.5455 0 -38.5116 1.42109e-014 -0.12619 9.76844 10.0949 -1.77636e-015 -44.7893 0 -3.61294 -14.9944 -10.2668 -3.55271e-015 -6.48872 14.974 3.97569e-016 0 3.18055e-015 
-6.55201 88.2749 99.8682 -2.02829 -3.72857 171.826 1.77636e-015 8.18577 0 0.182173 -12.7673 3.70587 -8.88178e-016 23.9492 0 1.38015 10.6639 3.55692 0 23.8508 2.16826 -1.57296 13.1464 -4.51049 1.77636e-015 13.9757 -1.99653 -0.0358127 -0.00210461 -4.65353 3.97939 22.162 -0.249083 -3.16372 8.86279 -0.588451 10.8129 0 1.42109e-014 -70.1374 43.5118 -3.60536 31.6972 7.10543e-015 0 -0.480576 -4.32196 -9.01174 27.0474 0 -1.42109e-014 -14.2423 -4.48711 1.02386 -4.00645 22.162 -0.249083 -8.74134 4.18439 3.48449 -10.8129 5.68434e-014 0 66.6255 42.4625 17.6012 -31.6972 7.10543e-015 0 -7.87752 -1.10998 28.7758 -27.0474 0 3.55271e-015 -6.28919 1.70115 -14.2663 9.98265 -1.42109e-014 1.42109e-014 -4.24379 -32.64 -2.47822 5.32907e-015 -38.5116 7.10543e-015 0.166482 20.4471 8.20657 1.77636e-015 -44.7893 0 2.60124 -0.418742 10.6012 3.55271e-015 -6.48872 14.974 3.97569e-016 0 -0 -9.98265 -1.42109e-014 0 2.15138 16.2583 -1.81039 0 -38.5116 0 -1.31095 13.1278 11.45 0 -44.7893 0 -1.45025 -12.8983 -10.2843 0 -6.48872 14.974 -0 0 3.18055e-015 
-6.54219 88.7251 95.4846 -3.16247 -3.18594 171.447 0 8.18577 0 -0.907542 -12.9756 3.30921 1.77636e-015 23.9492 0 0.666276 10.7444 3.34974 0 23.8508 2.16826 -1.54792 13.5922 -3.90597 -1.77636e-015 13.9757 -1.99653 0.119612 -0.426001 -4.00886 3.97939 22.162 -0.249083 -3.33605 8.80874 -0.525112 10.8129 0 0 -69.4025 42.6251 -3.93526 31.6972 0 0 -1.12138 -4.5263 -7.73876 27.0474 0 -1.42109e-014 -13.7565 -4.7437 1.18002 -4.00645 22.162 -0.249083 -8.57632 4.55391 3.15789 -10.8129 2.84217e-014 1.42109e-014 69.5352 43.4338 14.9773 -31.6972 7.10543e-015 1.42109e-014 -6.91079 -0.303119 26.4064 -27.0474 -7.10543e-015 7.10543e-015 -5.73738 2.04427 -14.3952 9.98265 -1.42109e-014 0 -5.65722 -31.459 -2.51975 -1.77636e-015 -38.5116 0 -0.200107 24.0849 7.79086 0 -44.7893 1.42109e-014 3.56323 -1.68574 10.9884 0 -6.48872 14.974 -9.93923e-017 1.59028e-015 3.18055e-015 -9.98265 -1.42109e-014 0 1.095 15.3269 -4.62027 3.55271e-015 -38.5116 1.42109e-014 -4.36803 18.4864 11.9952 0 -44.7893 0 2.90938 -8.0618 -6.16132 0 -6.48872 14.974 -0 -3.18055e-015 -0 
-6.49155 89.472 91.1831 -3.53328 -2.41761 171.745 1.77636e-015 8.18577 -1.42109e-014 -1.23744 -12.7871 2.67531 0 23.9492 -1.42109e-014 -0.154455 10.7982 2.82866 0 23.8508 2.16826 -1.44137 13.4931 -3.37434 0 13.9757 -1.99653 0.348981 0.409706 -3.42599 3.97939 22.162 -0.249083 -2.99208 8.59164 -0.649022 10.8129 0 -1.42109e-014 -68.9452 42.8989 -4.34898 31.6972 0 -1.42109e-014 -1.26485 -5.3336 -7.20574 27.0474 0 0 -13.8088 -5.6276 1.78281 -4.00645 22.162 -0.249083 -8.48426 4.95468 2.89559 -10.8129 -2.84217e-014 1.42109e-014 72.3267 44.1955 12.1835 -31.6972 0 0 -5.58418 0.218459 23.8757 -27.0474 -7.10543e-015 0 -4.58876 1.99769 -14.8632 9.98265 1.42109e-014 -1.42109e-014 -6.9682 -28.2806 -3.24411 0 -38.5116 -7.10543e-015 0.0706902 24.932 7.7914 8.88178e-016 -44.7893 0 4.42185 -3.39955 11.1365 0 -6.48872 14.974 9.93923e-017 0 -0 -9.98265 1.42109e-014 0 0.616777 13.0997 -5.82851 0 -38.5116 -1.42109e-014 -7.1343 25.9383 14.1655 -8.88178e-016 -44.7893 -1.42109e-014 8.11449 -1.30696 -4.97739 0 -6.48872 14.974 -7.95139e-016 3.18055e-015 -0 
-6.40506 90.2343 87.1583 -3.19083 -1.57637 171.881 0 8.18577 1.42109e-014 -1.02117 -12.1759 2.14415 -1.77636e-015 23.9492 0 -0.471255 10.9004 2.29801 0 23.8508 2.16826 -1.16604 13.2229 -2.85414 8.88178e-016 13.9757 -1.99653 -0.140864 1.03764 -2.95618 3.97939 22.162 -0.249083 -2.47623 8.51295 -0.929938 10.8129 0 0 -68.1962 43.299 -5.57545 31.6972 -7.10543e-015 1.42109e-014 -1.01396 -5.87167 -7.58024 27.0474 0 0 -14.0653 -6.19861 2.12225 -4.00645 22.162 -0.249083 -8.74707 5.14659 2.68374 -10.8129 -2.84217e-014 0 75.0962 44.8341 8.91307 -31.6972 0 0 -4.8058 0.529268 22.1674 -27.0474 -7.10543e-015 0 -2.5529 1.82423 -15.7731 9.98265 0 0 -7.29435 -24.4025 -1.56254 -1.77636e-015 -38.5116 0 1.26656 24.5792 5.72096 8.88178e-016 -44.7893 1.42109e-014 5.06686 -5.51697 11.2752 0 -6.48872 14.974 -1.98785e-016 3.97569e-016 3.18055e-015 -9.98265 0 1.42109e-014 -0.0626231 9.07893 -6.04558 3.55271e-015 -38.5116 0 -8.29545 35.977 16.9097 -8.88178e-016 -44.7893 0 11.8684 4.78096 -6.88943 0 -6.48872 14.974 -4.77083e-015 9.54166e-015 1.59028e-015 
-6.32312 90.8759 83.4508 -2.76079 -0.838382 171.536 0 8.18577 0 -0.949922 -11.2377 1.67184 -1.77636e-015 23.9492 1.42109e-014 -0.159857 10.6068 1.78 0 23.8508 2.16826 -0.841003 13.25 -2.32077 1.77636e-015 13.9757 -1.99653 -1.23413 0.901915 -2.55846 3.97939 22.162 -0.249083 -2.22449 8.38276 -1.1613 10.8129 0 2.84217e-014 -67.151 44.0148 -7.03485 31.6972 0 0 -0.375738 -6.15033 -8.70658 27.0474 -7.10543e-015 0 -14.474 -6.45077 2.15745 -4.00645 22.162 -0.249083 -8.90901 5.60808 2.43022 -10.8129 -2.84217e-014 1.42109e-014 76.447 44.5793 6.53328 -31.6972 -1.42109e-014 0 -3.652 0.966208 20.8779 -27.0474 0 7.10543e-015 -0.475403 1.70459 -15.97 9.98265 -1.42109e-014 0 -6.96583 -20.4345 0.357022 -1.77636e-015 -38.5116 1.42109e-014 1.61173 23.4453 4.54251 0 -44.7893 0 5.74344 -7.59569 11.3468 7.10543e-015 -6.48872 14.974 -6.95746e-016 7.95139e-016 -1.59028e-015 -9.98265 0 0 -0.943041 4.0684 -6.46257 0 -38.5116 -1.42109e-014 -10.0923 45.8402 19.5163 4.44089e-016 -44.7893 0 16.3262 9.82953 -9.53623 -7.10543e-015 -6.48872 14.974 3.18055e-015 -3.18055e-015 1.59028e-015 
-6.22639 91.4101 80.0391 -2.60565 -0.702262 171.157 0 8.18577 -1.42109e-014 -1.53685 -11.2839 1.19911 0 23.9492 7.10543e-015 0.802802 11.0761 1.27314 0 23.8508 2.16826 -0.568226 12.7962 -1.86396 1.77636e-015 13.9757 -1.99653 -1.80897 1.15247 -2.16224 3.97939 22.162 -0.249083 -1.80863 7.89263 -1.77388 10.8129 2.84217e-014 -1.42109e-014 -66.3065 44.77 -8.49253 31.6972 -7.10543e-015 -1.42109e-014 0.974214 -6.72017 -10.5559 27.0474 7.10543e-015 0 -14.381 -6.83842 1.65972 -4.00645 22.162 -0.249083 -8.95882 5.49737 2.0352 -10.8129 0 -1.42109e-014 77.2075 44.3047 4.07994 -31.6972 1.06581e-014 0 -2.85167 1.48151 20.3932 -27.0474 7.10543e-015 0 0.696364 1.89559 -16.0541 9.98265 0 -1.42109e-014 -6.77559 -17.0234 1.2121 -3.55271e-015 -38.5116 0 1.34691 21.8767 3.88389 0 -44.7893 0 6.43441 -9.21631 11.9539 0 -6.48872 14.974 -8.44835e-016 0 -3.18055e-015 -9.98265 0 0 -1.6722 -1.91651 -6.37003 0 -38.5116 0 -12.5103 54.521 22.4642 8.88178e-016 -44.7893 2.84217e-014 17.8152 12.2307 -11.8708 0 -6.48872 14.974 3.18055e-015 3.18055e-015 1.59028e-015 
-6.02638 91.8242 76.8074 -2.34375 -0.964534 171.226 0 8.18577 1.42109e-014 -2.29234 -11.5367 0.433117 8.88178e-016 23.9492 1.42109e-014 2.12452 11.2642 0.455076 -1.77636e-015 23.8508 2.16826 -0.201815 12.9743 -1.5429 0 13.9757 -1.99653 -2.40687 0.693809 -1.92902 3.97939 22.162 -0.249083 -1.39571 7.68045 -2.34883 10.8129 0 -1.42109e-014 -65.2482 45.0058 -10.1163 31.6972 0 0 2.37775 -7.4275 -12.9886 27.0474 1.42109e-014 0 -12.9434 -7.33994 1.61255 -4.00645 22.162 -0.249083 -8.84993 5.49682 1.51325 -10.8129 0 -1.42109e-014 77.3663 44.095 1.99795 -31.6972 -7.10543e-015 1.42109e-014 -2.43833 1.98609 20.1742 -27.0474 0 0 0.995038 2.28505 -15.3604 9.98265 1.42109e-014 0 -6.39705 -14.0189 0.353764 0 -38.5116 -7.10543e-015 0.446613 20.1724 4.23996 0 -44.7893 0 7.08479 -10.538 12.8303 3.55271e-015 -6.48872 14.974 -4.96962e-017 0 3.18055e-015 -9.98265 1.42109e-014 0 -1.79621 -8.21134 -6.64187 0 -38.5116 7.10543e-015 -15.8046 61.4339 26.1548 0 -44.7893 0 16.3998 8.4339 -12.5606 0 -6.48872 14.974 3.18055e-015 0 -0 
